<?xml version="1.0" encoding="utf-8"?>
<!-- Generator: Adobe Illustrator 16.0.0, SVG Export Plug-In . SVG Version: 6.00 Build 0)  -->
<!DOCTYPE svg PUBLIC "-//W3C//DTD SVG 1.1//EN" "http://www.w3.org/Graphics/SVG/1.1/DTD/svg11.dtd">
<svg version="1.1" id="Calque_1" xmlns="http://www.w3.org/2000/svg" xmlns:xlink="http://www.w3.org/1999/xlink" x="0px" y="0px"
	 width="170px" height="60px" viewBox="0 0 170 60" enable-background="new 0 0 170 60" xml:space="preserve">
<g>
	<path fill="#FB4E46" d="M32.872,6.005c-1.088,2.926-2.375,5.76-3.775,8.54c-0.689,1.396-1.424,2.769-2.188,4.128
		c-0.751,1.366-1.54,2.713-2.374,4.035c-1.636,2.666-3.44,5.236-5.419,7.717c-1.999,2.461-4.223,4.815-7.146,6.602
		c-0.744,0.43-1.537,0.82-2.418,1.098c-0.881,0.268-1.877,0.416-2.9,0.254c-1.023-0.152-1.992-0.668-2.678-1.334
		c-0.698-0.666-1.168-1.434-1.543-2.197c-0.733-1.527-1.113-3.119-1.322-4.735c-0.172-1.612-0.124-3.215,0.042-4.79
		c0.353-3.153,1.22-6.201,2.372-9.135c1.15-2.936,2.592-5.779,4.427-8.42c0.926-1.312,1.929-2.596,3.118-3.747
		c1.175-1.162,2.503-2.233,4.119-3.028c0.806-0.396,1.688-0.727,2.664-0.888c0.97-0.164,2.047-0.149,3.082,0.147
		c1.039,0.29,1.988,0.854,2.742,1.533c0.767,0.679,1.35,1.459,1.813,2.251c0.946,1.594,1.463,3.239,1.871,4.862
		c0.403,1.625,0.614,3.249,0.767,4.859c0.125,1.61,0.165,3.225,0.184,4.745l0.063,4.626c0.046,3.082,0.038,6.168,0.113,9.224
		l0.073,2.27c0.029,0.738,0.07,1.512,0.154,2.119c0.019,0.139,0.053,0.285,0.043,0.275c-0.009-0.02-0.016-0.031-0.062-0.107
		c-0.01-0.012-0.072-0.109-0.119-0.154c-0.016-0.018-0.088-0.096-0.139-0.135c-0.059-0.047-0.098-0.078-0.217-0.148
		c-0.108-0.062-0.205-0.1-0.34-0.139c-0.142-0.039-0.298-0.055-0.44-0.047c-0.128,0.004-0.259,0.027-0.382,0.068
		c-0.114,0.041-0.168,0.062-0.248,0.107c-0.086,0.051-0.129,0.082-0.16,0.105c-0.037,0.029-0.072,0.059-0.104,0.092
		c-0.033,0.029-0.07,0.074-0.089,0.098c-0.092,0.145,0.021-0.014,0.067-0.119c0.062-0.127,0.128-0.283,0.191-0.443
		c0.26-0.65,0.5-1.385,0.756-2.105c0.994-2.916,2.023-5.897,3.365-8.75c0.672-1.426,1.422-2.824,2.295-4.149
		c0.881-1.315,1.897-2.57,3.15-3.546c0.085-0.067,0.209-0.052,0.275,0.034c0.06,0.076,0.053,0.183-0.008,0.252
		c-0.998,1.15-1.742,2.478-2.377,3.846c-0.642,1.368-1.156,2.796-1.621,4.24c-0.931,2.895-1.617,5.856-2.334,8.874
		c-0.18,0.762-0.367,1.512-0.615,2.318c-0.063,0.205-0.131,0.412-0.219,0.643c-0.109,0.244-0.152,0.443-0.481,0.895
		c-0.05,0.062-0.121,0.143-0.185,0.205c-0.052,0.047-0.105,0.094-0.162,0.137c-0.049,0.039-0.111,0.086-0.219,0.146
		c-0.104,0.053-0.177,0.092-0.314,0.137c-0.145,0.047-0.301,0.074-0.452,0.082c-0.167,0.006-0.347-0.012-0.513-0.055
		c-0.158-0.043-0.274-0.096-0.404-0.166c-0.143-0.08-0.199-0.129-0.275-0.193c-0.068-0.055-0.16-0.146-0.191-0.184
		c-0.075-0.084-0.172-0.215-0.202-0.271c-0.099-0.158-0.144-0.26-0.19-0.369c-0.15-0.367-0.201-0.602-0.26-0.84
		c-0.201-0.91-0.29-1.68-0.391-2.479c-0.096-0.791-0.158-1.572-0.225-2.352c-0.248-3.114-0.445-6.202-0.587-9.295
		c-0.175-3.068-0.198-6.25-0.411-9.145c-0.111-1.467-0.302-2.912-0.572-4.301c-0.283-1.378-0.672-2.728-1.271-3.817
		C21.5,4.86,20.735,4.094,19.864,3.791c-0.873-0.324-2.048-0.166-3.245,0.33c-2.403,1.04-4.69,3.041-6.668,5.225
		c-1.974,2.222-3.711,4.733-5.044,7.451c-1.326,2.717-2.273,5.649-2.568,8.647c-0.295,2.988,0.229,6.057,1.778,8.465
		c0.378,0.58,0.826,1.084,1.308,1.422c0.484,0.34,0.982,0.494,1.5,0.498c1.035,0.006,2.236-0.615,3.334-1.428
		c1.104-0.826,2.174-1.814,3.176-2.885c1.022-1.056,2.002-2.182,2.978-3.324c1.949-2.288,3.752-4.741,5.56-7.203
		c3.586-4.949,6.992-10.077,10.552-15.163c0.062-0.09,0.185-0.114,0.274-0.052C32.874,5.825,32.901,5.922,32.872,6.005"/>
	<path fill="#FB4E46" d="M29.54,33.547c0.768-3.27,1.706-6.506,2.934-9.66c0.634-1.569,1.32-3.126,2.299-4.583
		c0.513-0.708,1.052-1.455,2.023-1.921c0.481-0.232,1.155-0.269,1.692-0.028c0.533,0.234,0.903,0.612,1.203,0.984
		c0.606,0.76,0.927,1.58,1.288,2.373c0.333,0.805,0.633,1.623,0.867,2.451c0.473,1.658,0.828,3.336,1.092,5.021
		c0.527,3.379,0.759,6.75,0.809,10.182l-2.238-0.217c0.644-3.512,1.291-7.006,2.17-10.479c0.436-1.737,0.892-3.468,1.479-5.208
		c0.152-0.434,0.316-0.868,0.505-1.308c0.197-0.444,0.388-0.879,0.733-1.38c0.091-0.127,0.191-0.259,0.347-0.41
		c0.161-0.141,0.369-0.35,0.843-0.45c0.232-0.047,0.529-0.013,0.748,0.08c0.232,0.096,0.371,0.217,0.487,0.329
		c0.21,0.221,0.3,0.399,0.381,0.559c0.275,0.617,0.337,1.075,0.427,1.561c0.312,1.981,0.049,3.762-0.076,5.534
		c-0.135,1.762-0.346,3.525-0.266,5.189c0.026,0.801,0.276,1.689,0.602,1.736c0.191,0.07,0.578-0.029,0.926-0.207
		c0.355-0.176,0.709-0.416,1.049-0.676c1.368-1.051,2.609-2.342,3.836-3.625c-0.99,1.48-2.023,2.934-3.322,4.223
		c-0.332,0.318-0.683,0.625-1.094,0.893c-0.413,0.248-0.893,0.541-1.592,0.465c-0.344-0.045-0.684-0.242-0.9-0.479
		c-0.223-0.234-0.357-0.492-0.466-0.738c-0.207-0.496-0.301-0.973-0.377-1.441c-0.265-1.871-0.188-3.661-0.155-5.435
		c0.022-1.758,0.11-3.551-0.188-5.076c-0.076-0.383-0.188-0.804-0.292-0.992c-0.018-0.037-0.043-0.052,0.012,0.01
		c0.036,0.037,0.088,0.084,0.215,0.142c0.117,0.054,0.301,0.07,0.424,0.046c0.254-0.056,0.276-0.126,0.279-0.114L48.168,21
		c-0.151,0.234-0.322,0.616-0.465,0.989c-0.148,0.381-0.281,0.782-0.41,1.187c-0.527,1.627-0.957,3.333-1.361,5.039
		c-0.777,3.423-1.553,6.878-2.203,10.335l-0.002,0.012c-0.115,0.613-0.705,1.016-1.318,0.9c-0.549-0.104-0.929-0.59-0.919-1.129
		c0.06-3.277-0.095-6.623-0.429-9.9c-0.164-1.644-0.418-3.272-0.778-4.864c-0.166-0.801-0.384-1.584-0.635-2.35
		c-0.263-0.758-0.543-1.53-0.974-2.103c-0.207-0.288-0.447-0.527-0.683-0.642c-0.233-0.109-0.463-0.121-0.751-0.013
		c-0.581,0.219-1.156,0.827-1.638,1.446c-0.972,1.281-1.741,2.772-2.446,4.274C31.749,27.203,30.586,30.359,29.54,33.547"/>
	<path fill="#FB4E46" d="M114.159,20.127c0.779-1.018,1.562-1.922,2.439-2.826c0.883-0.889,1.803-1.756,3.021-2.487
		c0.625-0.343,1.324-0.721,2.371-0.74c0.512-0.005,1.125,0.155,1.588,0.48c0.469,0.319,0.781,0.728,0.992,1.105
		c0.416,0.755,0.561,1.482,0.66,2.104c0.09,0.608,0.188,1.215,0.244,1.819c0.266,2.421,0.311,4.82,0.266,7.209
		c-0.049,2.393-0.193,4.754-0.447,7.146l-1.789-0.344c1.014-3.106,2.1-6.163,3.332-9.188c0.621-1.509,1.27-3.009,2.055-4.47
		c0.404-0.728,0.807-1.451,1.416-2.129c0.15-0.169,0.33-0.334,0.557-0.484c0.213-0.14,0.568-0.301,0.971-0.189
		c0.391,0.118,0.588,0.393,0.725,0.608c0.123,0.224,0.215,0.444,0.275,0.657c0.254,0.86,0.303,1.672,0.402,2.476
		c0.088,0.809,0.162,1.618,0.23,2.426c0.143,1.615,0.236,3.233,0.436,4.824c0.113,0.787,0.229,1.599,0.562,2.283
		c0.168,0.336,0.438,0.602,0.791,0.594c0.354-0.004,0.719-0.192,1.045-0.408c1.303-0.919,2.352-2.193,3.398-3.416
		c-0.992,1.274-1.965,2.586-3.268,3.603c-0.334,0.239-0.705,0.473-1.17,0.506c-0.49,0.039-0.902-0.344-1.096-0.713
		c-0.414-0.759-0.559-1.578-0.715-2.377c-0.281-1.61-0.449-3.22-0.666-4.821c-0.105-0.801-0.219-1.599-0.344-2.395
		c-0.133-0.794-0.232-1.607-0.475-2.291c-0.057-0.174-0.135-0.323-0.211-0.452c-0.08-0.12-0.166-0.173-0.172-0.164
		c0.021-0.042-0.303,0.138-0.508,0.417c-0.453,0.55-0.824,1.265-1.168,1.967c-0.682,1.426-1.252,2.93-1.793,4.439
		c-1.066,3.026-2.006,6.121-2.855,9.215c-0.135,0.484-0.637,0.771-1.123,0.637c-0.422-0.117-0.693-0.512-0.668-0.932l0.002-0.049
		c0.137-2.303,0.17-4.652,0.109-6.969c-0.066-2.32-0.223-4.637-0.578-6.887c-0.08-0.566-0.197-1.117-0.307-1.67
		c-0.1-0.533-0.246-0.97-0.42-1.239c-0.082-0.133-0.156-0.185-0.18-0.193c-0.027-0.007-0.012,0.001-0.086,0.003
		c-0.143,0.002-0.547,0.156-0.926,0.41c-0.785,0.515-1.58,1.298-2.312,2.116c-0.729,0.818-1.449,1.734-2.061,2.615l-0.02,0.025
		c-0.494,0.712-1.473,0.887-2.184,0.392s-0.887-1.473-0.393-2.185C114.13,20.167,114.146,20.144,114.159,20.127"/>
	<path fill="#FB4E46" d="M63.495,6.438c-1.263,3.237-2.457,6.545-3.574,9.856c-1.109,3.316-2.151,6.659-2.988,10.04
		c-0.416,1.69-0.778,3.394-0.995,5.1c-0.104,0.852-0.17,1.709-0.127,2.539c0.034,0.803,0.226,1.695,0.743,1.975
		c0.253,0.145,0.631,0.121,1.005,0.004c0.38-0.105,0.751-0.316,1.116-0.525c0.728-0.445,1.402-1.004,2.056-1.58
		c1.306-1.16,2.519-2.441,3.69-3.752c-1.072,1.395-2.186,2.762-3.42,4.037c-0.619,0.633-1.262,1.252-2,1.785
		c-0.377,0.254-0.76,0.514-1.218,0.684c-0.44,0.17-1.001,0.297-1.558,0.061c-0.555-0.238-0.871-0.75-1.053-1.201
		c-0.189-0.465-0.279-0.934-0.338-1.393c-0.117-0.924-0.111-1.832-0.07-2.73c0.094-1.798,0.336-3.566,0.631-5.319
		c0.597-3.505,1.398-6.958,2.27-10.389c0.879-3.433,1.826-6.827,2.871-10.234c0.254-0.83,1.133-1.296,1.963-1.041
		c0.828,0.254,1.295,1.132,1.041,1.961c-0.013,0.037-0.024,0.072-0.037,0.107L63.495,6.438z"/>
	<path fill="#FB4E46" d="M50.754,13.262c1.87-0.745,3.664-1.359,5.521-1.928c1.842-0.575,3.703-1.083,5.573-1.538
		c3.742-0.908,7.536-1.579,11.354-1.998c3.822-0.399,7.673-0.454,11.49-0.201c3.821,0.307,7.581,1.094,11.184,2.282
		c-3.691-0.912-7.451-1.4-11.221-1.417C80.89,8.5,77.14,8.841,73.446,9.512c-3.689,0.693-7.326,1.626-10.888,2.783
		c-3.54,1.16-7.091,2.527-10.356,4.113l-0.049,0.024c-0.86,0.418-1.897,0.059-2.315-0.802c-0.419-0.861-0.06-1.899,0.801-2.317
		C50.675,13.294,50.716,13.277,50.754,13.262"/>
	<path fill="#FB4E46" d="M68.26,21.643c-0.84,1.721-1.627,3.544-2.313,5.36c-0.674,1.82-1.296,3.686-1.555,5.538
		c-0.119,0.896-0.132,1.893,0.229,2.439c0.169,0.258,0.45,0.398,0.862,0.414c0.404,0.012,0.863-0.098,1.307-0.248
		c1.797-0.656,3.463-1.83,5.064-2.994c-1.449,1.367-2.909,2.744-4.758,3.717c-0.473,0.229-0.976,0.438-1.566,0.504
		c-0.297,0.025-0.617,0.02-0.943-0.08c-0.326-0.104-0.634-0.305-0.865-0.555c-0.463-0.514-0.639-1.111-0.754-1.66
		c-0.111-0.557-0.139-1.098-0.143-1.631c0.02-2.124,0.421-4.133,0.868-6.123c0.467-1.992,1.015-3.921,1.67-5.888
		c0.274-0.824,1.166-1.269,1.99-0.994c0.823,0.275,1.269,1.166,0.993,1.99c-0.021,0.064-0.045,0.125-0.073,0.184L68.26,21.643z"/>
	<path fill="#FB4E46" d="M84.997,23.013c-1.158-2.016-2.166-4.045-3.418-5.51c-0.625-0.735-1.279-1.158-1.843-1.268
		c-0.562-0.158-1.479-0.031-2.415,0.436c-0.938,0.444-1.83,1.152-2.556,1.985c-0.726,0.841-1.308,1.775-1.708,2.793
		c-0.832,2.024-0.917,4.273-0.514,6.265c0.373,1.985,1.264,3.85,2.662,4.844c1.375,0.996,3.088,1.105,4.938,0.592
		c1.847-0.516,3.712-1.602,5.461-2.887c1.779-1.272,3.453-2.772,5.214-4.265c0.066-0.058,0.168-0.051,0.227,0.016
		c0.043,0.049,0.049,0.119,0.021,0.175c-1.01,2.092-2.312,4.04-3.91,5.801c-1.614,1.727-3.528,3.338-6.002,4.26
		c-1.227,0.455-2.626,0.686-4.053,0.518c-1.426-0.162-2.825-0.805-3.896-1.736c-1.084-0.928-1.838-2.115-2.338-3.332
		c-0.496-1.225-0.73-2.508-0.738-3.765c-0.006-2.531,0.82-4.888,1.938-6.955c0.567-1.034,1.237-2.009,1.935-2.933
		c0.695-0.929,1.343-1.912,2.216-2.839c0.444-0.451,0.94-0.91,1.589-1.235c0.631-0.34,1.432-0.562,2.268-0.488
		c0.834,0.066,1.621,0.421,2.211,0.885c0.604,0.458,1.053,1.003,1.422,1.553c0.723,1.113,1.133,2.285,1.386,3.463
		c0.239,1.181,0.346,2.367,0.211,3.571c-0.011,0.089-0.091,0.154-0.181,0.144c-0.054-0.006-0.099-0.037-0.123-0.08L84.997,23.013z"
		/>
	<path fill="#FB4E46" d="M88.229,16.817c-0.012,3.618-0.182,7.164-0.463,10.737c-0.291,3.565-0.709,7.126-1.375,10.663
		c-0.691,3.523-1.547,7.078-3.23,10.396c-1.665,3.207-3.781,6.332-6.849,8.518c-1.521,1.078-3.324,1.875-5.256,2.016
		c-1.918,0.148-3.937-0.453-5.373-1.77c-0.721-0.648-1.283-1.459-1.67-2.334c-0.375-0.885-0.564-1.836-0.578-2.779
		c-0.021-1.902,0.678-3.711,1.685-5.227c2.08-3.043,5.22-5.039,8.43-6.521c3.245-1.479,6.687-2.422,10.153-3.129
		c-3.438,0.832-6.834,1.9-9.987,3.477c-3.118,1.574-6.106,3.664-7.946,6.59c-0.892,1.455-1.451,3.125-1.369,4.783
		c0.041,0.824,0.235,1.633,0.58,2.369c0.355,0.729,0.85,1.385,1.465,1.9c1.23,1.043,2.893,1.475,4.492,1.297
		c1.61-0.176,3.148-0.908,4.469-1.92c2.664-2.043,4.561-5.021,6.023-8.119c1.42-3.068,2.127-6.508,2.661-9.938
		c0.997-6.889,1.2-13.979,1.001-20.935l-0.001-0.035c-0.024-0.867,0.658-1.589,1.525-1.614c0.865-0.025,1.588,0.657,1.613,1.524
		C88.229,16.781,88.229,16.803,88.229,16.817"/>
	<path fill="#FB4E46" d="M138.479,22.307c0.248,0.103,0.682,0.241,1.043,0.336c0.379,0.102,0.766,0.188,1.154,0.255
		c0.775,0.131,1.559,0.199,2.32,0.171c1.525-0.048,2.967-0.449,4.139-1.288c1.207-0.842,2.156-2.098,2.111-3.064
		c0.002-0.491-0.195-0.992-0.604-1.448c-0.404-0.453-0.994-0.826-1.645-1.054c-1.316-0.464-2.842-0.321-4.027,0.437
		c-1.201,0.75-2.072,2.101-2.547,3.65c-0.49,1.551-0.646,3.271-0.613,4.997c0.029,1.73,0.246,3.481,0.57,5.218
		c0.328,1.739,0.725,3.481,1.332,5.088c0.303,0.799,0.674,1.564,1.146,2.172c0.492,0.594,1.029,0.912,1.682,0.807
		c0.668-0.094,1.396-0.557,2.053-1.088c0.66-0.543,1.283-1.168,1.885-1.818c1.201-1.311,2.328-2.719,3.461-4.125
		c2.262-2.813,4.521-5.668,7.127-8.208c1.301-1.269,2.693-2.452,4.217-3.443c1.521-0.988,3.195-1.777,4.973-2.126
		c-1.762,0.425-3.383,1.278-4.842,2.317c-1.463,1.044-2.787,2.269-4.018,3.577c-2.467,2.617-4.584,5.538-6.723,8.447
		c-1.074,1.457-2.145,2.92-3.326,4.326c-0.596,0.699-1.221,1.387-1.93,2.023c-0.719,0.615-1.518,1.25-2.645,1.486
		c-0.557,0.111-1.201,0.051-1.74-0.197c-0.543-0.242-0.969-0.617-1.32-1.006c-0.676-0.793-1.121-1.662-1.5-2.533
		c-0.744-1.746-1.221-3.527-1.652-5.317c-0.422-1.797-0.74-3.632-0.861-5.513c-0.119-1.877-0.055-3.812,0.451-5.741
		c0.49-1.904,1.533-3.888,3.359-5.169c1.812-1.285,4.225-1.642,6.352-1.002c1.066,0.318,2.096,0.867,2.945,1.718
		c0.848,0.835,1.494,2.062,1.564,3.386c0.082,1.324-0.381,2.561-0.994,3.51c-0.627,0.971-1.355,1.717-2.211,2.398
		c-1.713,1.366-3.879,2.066-5.947,2.228c-1.041,0.089-2.072,0.051-3.084-0.069c-0.506-0.061-1.006-0.145-1.506-0.252
		c-0.518-0.116-0.957-0.219-1.557-0.425c-1.025-0.352-1.57-1.469-1.219-2.494c0.354-1.025,1.469-1.57,2.494-1.218
		c0.037,0.012,0.072,0.026,0.107,0.04L138.479,22.307z"/>
	<path fill="#FB4E46" d="M72.638,41.186c2.009-1.115,4.16-1.971,6.363-2.65c2.206-0.674,4.469-1.156,6.748-1.527
		c2.279-0.361,4.578-0.615,6.885-0.744c2.312-0.131,4.609-0.18,6.951-0.086l-0.236,1.352c-2.789-0.621-5.424-2.209-7.266-4.551
		c-1.818-2.354-2.73-5.481-2.338-8.522c0.391-3.048,2.035-5.864,4.348-7.829c2.316-1.982,5.295-3.102,8.301-3.311
		c3.01-0.225,6.117,0.53,8.68,2.192c2.566,1.63,4.623,4.206,5.408,7.216c0.398,1.496,0.492,3.059,0.301,4.582
		c-0.205,1.521-0.705,2.997-1.469,4.305c-1.518,2.623-3.957,4.596-6.691,5.619l-0.119-1.875c1.488,0.424,3.127,0.727,4.729,0.924
		c1.615,0.201,3.244,0.287,4.875,0.285c1.633,0.006,3.266-0.117,4.881-0.369c1.625-0.217,3.213-0.631,4.791-1.1l0.016-0.004
		c0.174-0.051,0.357,0.047,0.408,0.221c0.049,0.164-0.039,0.338-0.195,0.398c-1.566,0.607-3.164,1.189-4.822,1.527
		c-1.65,0.377-3.332,0.621-5.023,0.734c-1.691,0.129-3.395,0.137-5.09,0.016c-1.709-0.121-3.365-0.324-5.104-0.717
		c-0.525-0.119-0.855-0.641-0.736-1.166c0.066-0.299,0.264-0.533,0.518-0.658l0.1-0.049c2.242-1.1,4.166-2.834,5.219-5.004
		c0.521-1.079,0.869-2.226,0.982-3.398c0.1-1.172-0.02-2.36-0.363-3.474c-0.705-2.219-2.232-4.174-4.26-5.416
		c-2.014-1.261-4.443-1.822-6.838-1.7c-2.402,0.128-4.744,1.011-6.602,2.506c-1.873,1.471-3.223,3.6-3.617,5.937
		c-0.447,2.333,0.082,4.843,1.449,6.879c1.33,2.072,3.48,3.623,5.9,4.473l0.047,0.018c0.359,0.125,0.547,0.518,0.42,0.875
		c-0.105,0.303-0.4,0.484-0.703,0.459c-2.238-0.184-4.535-0.23-6.809-0.195c-2.277,0.041-4.555,0.17-6.822,0.414
		c-2.268,0.25-4.52,0.633-6.743,1.164C76.892,39.477,74.71,40.193,72.638,41.186"/>
	<path fill="#8BCA31" d="M66.262,15.517c-0.008-0.362,0.047-0.705,0.174-1.025c0.128-0.32,0.31-0.604,0.543-0.853
		c0.234-0.247,0.507-0.445,0.82-0.587c0.314-0.147,0.649-0.223,1.014-0.233c0.361-0.011,0.701,0.047,1.023,0.174
		c0.32,0.126,0.604,0.308,0.853,0.541c0.249,0.236,0.444,0.509,0.589,0.822c0.145,0.312,0.223,0.651,0.232,1.012
		c0.011,0.362-0.047,0.704-0.174,1.024c-0.128,0.32-0.307,0.605-0.543,0.853c-0.234,0.249-0.507,0.445-0.82,0.589
		c-0.313,0.145-0.651,0.223-1.012,0.233c-0.363,0.01-0.703-0.049-1.023-0.175s-0.604-0.307-0.854-0.543
		c-0.247-0.234-0.446-0.508-0.588-0.822C66.35,16.215,66.273,15.878,66.262,15.517"/>
</g>
</svg>
